<?xml version="1.0" encoding="utf-8"?>
<!-- Generator: Adobe Illustrator 20.1.0, SVG Export Plug-In . SVG Version: 6.00 Build 0)  -->
<svg version="1.1" id="Layer_1" xmlns="http://www.w3.org/2000/svg" xmlns:xlink="http://www.w3.org/1999/xlink" x="0px" y="0px"
	 viewBox="0 0 20 20" style="enable-background:new 0 0 20 20;" xml:space="preserve">
<style type="text/css">
	.st0{fill:#FF580E;}
	.st1{fill:#FFFFFF;}
	.st2{display:none;}
	.st3{display:inline;fill:#FF580E;}
	.st4{display:inline;fill:#FFBD8D;}
	.st5{display:inline;fill:#BBBBBB;}
</style>
<circle class="st0" cx="10" cy="10" r="10"/>
<circle class="st1" cx="10" cy="10" r="8.6"/>
<circle class="st0" cx="10" cy="10" r="7.4"/>
<circle class="st1" cx="10" cy="10" r="6.3"/>
<circle class="st0" cx="10" cy="10" r="5"/>
<circle class="st1" cx="10" cy="10" r="3.8"/>
<g class="st2">
	<path class="st3" d="M9.1,8.3c0.8-0.6,1.1-1.7,0.5-2.5C9,5,7.9,4.7,7.1,5.3S6.1,7,6.6,7.8C6.7,8,6.9,8.2,7.1,8.3c0,0,0.1,0.1,0,0.1
		l0,0c-1.2,0.4-2,1.6-2.1,2.8c0,0,0,0.1,0.1,0.1c1,0.3,2,0.4,3,0.4c1,0,2-0.1,3-0.4l0.1-0.1c0-1.3-0.9-2.4-2.1-2.8
		C9.1,8.4,9,8.4,9.1,8.3L9.1,8.3z"/>
	<path class="st4" d="M10.8,9.4c0.8-0.6,1-1.7,0.5-2.5c-0.6-0.8-1.7-1-2.5-0.5s-1,1.7-0.5,2.5c0.1,0.2,0.3,0.4,0.5,0.5
		c0,0,0.1,0.1,0,0.1l0,0c-1.2,0.4-2,1.6-2.1,2.8c0,0,0,0.1,0.1,0.1c1,0.3,2,0.4,3,0.4s2-0.1,3-0.4l0.1-0.1c0-1.3-0.9-2.4-2.1-2.8
		C10.7,9.5,10.7,9.5,10.8,9.4L10.8,9.4z"/>
	<path class="st5" d="M12.6,10.3c0.8-0.6,1-1.7,0.5-2.5c-0.6-0.8-1.7-1-2.5-0.5s-1,1.7-0.5,2.5c0.1,0.2,0.3,0.4,0.5,0.5
		c0,0,0.1,0.1,0,0.1l0,0c-1.2,0.4-2,1.6-2.1,2.8c0,0,0,0.1,0.1,0.1c1,0.3,2,0.4,3,0.4s2-0.1,3-0.4l0.1-0.1c0-1.3-0.9-2.4-2.1-2.8
		C12.6,10.4,12.5,10.4,12.6,10.3L12.6,10.3z"/>
</g>
<circle class="st0" cx="10" cy="10" r="2.5"/>
</svg>
