<svg width="23" height="25" viewBox="0 0 23 25" fill="none" xmlns="http://www.w3.org/2000/svg">
<path d="M7.8 4.4C4.9 4.4 0 3.9 0 2.2C0 0.5 4.9 0 7.8 0C10.7 0 15.6 0.5 15.6 2.2C15.6 3.9 10.7 4.4 7.8 4.4ZM7.8 1C3.7 1 1.3 1.8 1.1 2.2C1.3 2.6 3.7 3.3 7.8 3.3C11.8 3.3 14.2 2.6 14.5 2.1C14.2 1.8 11.8 1 7.8 1Z" transform="translate(0.0187378 5)" fill="black"/>
<path d="M5.91875 17.8C5.71875 17.7 5.61875 17.5 5.61875 17.3V10.4C4.81875 10 2.91875 8.8 1.51875 6.4C-0.28125 3.4 0.01875 0.1 0.01875 0L1.01875 0.0999999C1.01875 0.0999999 0.71875 3.2 2.31875 5.9C3.91875 8.6 6.21875 9.6 6.21875 9.6C6.41875 9.7 6.51875 9.9 6.51875 10.1V16.4L8.81875 14.9V10.2C8.81875 10 8.91875 9.8 9.11875 9.7C9.11875 9.7 11.4187 8.7 13.0188 6C14.6188 3.3 14.3188 0.2 14.3188 0.2L15.3188 0.0999999C15.3188 0.2 15.6188 3.5 13.8188 6.5C12.4188 8.9 10.5188 10.1 9.71875 10.5V15.2C9.71875 15.4 9.61875 15.5 9.51875 15.6L6.21875 17.8C6.31875 17.8 6.01875 17.8 5.91875 17.8Z" transform="translate(0 7.20001)" fill="black"/>
<path d="M6 12C9.31371 12 12 9.31371 12 6C12 2.68629 9.31371 0 6 0C2.68629 0 0 2.68629 0 6C0 9.31371 2.68629 12 6 12Z" transform="translate(11)" fill="#EA1F27"/>
<path d="M4.62 5.055C4.5 5.055 4.38 4.995 4.32 4.935L2.52 3.135L0.72 4.935C0.54 5.115 0.3 5.115 0.12 4.935C0.0599999 4.875 0 4.755 0 4.635C0 4.515 0.0599999 4.395 0.12 4.335L1.92 2.535L0.12 0.735C-1.16229e-07 0.555 -1.16229e-07 0.315 0.12 0.135C0.3 -0.045 0.54 -0.045 0.72 0.135L2.52 1.935L4.32 0.135C4.5 -0.045 4.74 -0.045 4.92 0.135C4.98 0.195 5.04 0.315 5.04 0.435C5.04 0.555 4.98 0.675 4.92 0.735L3.12 2.535L4.92 4.335C4.98 4.395 5.04 4.515 5.04 4.635C5.04 4.755 4.98 4.875 4.92 4.935C4.8 4.995 4.74 5.055 4.62 5.055Z" transform="translate(14.48 3.46497)" fill="white"/>
</svg>
