<svg id="Layer_1" data-name="Layer 1" xmlns="http://www.w3.org/2000/svg" viewBox="0 0 20 20"><title>close</title><path d="M6.62,13.41a0.58,0.58,0,0,1,.05-0.85L9.24,10,6.66,7.4a0.56,0.56,0,0,1-.08-0.83,0.58,0.58,0,0,1,.84.07L10,9.22l2.54-2.54a0.57,0.57,0,0,1,.86-0.07,0.58,0.58,0,0,1-.08.85L10.77,10l2.57,2.6a0.59,0.59,0,0,1,.07.84,0.58,0.58,0,0,1-.83-0.08L10,10.76,7.44,13.32A0.55,0.55,0,0,1,6.62,13.41Z" transform="translate(0)"/><path d="M20,10A10,10,0,1,1,10,0,10,10,0,0,1,20,10ZM10,1.13A8.88,8.88,0,1,0,18.88,10,8.88,8.88,0,0,0,10,1.13Z" transform="translate(0)"/></svg>