<?xml version="1.0" encoding="utf-8"?>
<!-- Generator: Adobe Illustrator 21.0.0, SVG Export Plug-In . SVG Version: 6.00 Build 0)  -->
<svg version="1.1" xmlns="http://www.w3.org/2000/svg" xmlns:xlink="http://www.w3.org/1999/xlink" x="0px" y="0px"
	 viewBox="0 0 20 20" enable-background="new 0 0 20 20" xml:space="preserve">
<g id="Layer_4">
</g>
<g id="Layer_1">
	<g>
		<g>
			<polygon fill="none" points="-90.4,-353.7 12.8,-352.4 12.8,922.3 -90.4,921.1 			"/>
			<text transform="matrix(1 0 0 1 -90.4362 -347.0392)"><tspan x="0" y="0" fill="#000100" font-family="'FuturaPT-Book'" font-size="8px">Stop</tspan><tspan x="0" y="36" fill="#000100" font-family="'FuturaPT-Book'" font-size="8px">Restart</tspan><tspan x="0" y="72" fill="#000100" font-family="'FuturaPT-Book'" font-size="8px">Suspend</tspan><tspan x="0" y="108" fill="#000100" font-family="'FuturaPT-Book'" font-size="8px">Step</tspan><tspan x="0" y="144" fill="#000100" font-family="'FuturaPT-Book'" font-size="8px">Step over</tspan><tspan x="0" y="180" fill="#000100" font-family="'FuturaPT-Book'" font-size="8px">Rewind</tspan><tspan x="0" y="216" fill="#000100" font-family="'FuturaPT-Book'" font-size="8px">Resume</tspan><tspan x="0" y="252" fill="#000100" font-family="'FuturaPT-Book'" font-size="8px">Move up/down (12x12)</tspan><tspan x="0" y="288" fill="#000100" font-family="'FuturaPT-Book'" font-size="8px">Information (12x12)</tspan><tspan x="0" y="324" fill="#000100" font-family="'FuturaPT-Book'" font-size="8px">Find</tspan><tspan x="0" y="360" fill="#020202" font-family="'FuturaPT-Book'" font-size="8px">Close_page (20x20px)</tspan><tspan x="0" y="396" fill="#000100" font-family="'FuturaPT-Book'" font-size="8px">Toolbar move up/down</tspan><tspan x="0" y="432" fill="#000100" font-family="'FuturaPT-Book'" font-size="8px">Expand List</tspan><tspan x="0" y="468" fill="#000100" font-family="'FuturaPT-Book'" font-size="8px">Collapse List</tspan><tspan x="0" y="504" fill="#000100" font-family="'FuturaPT-Book'" font-size="8px">Show Change</tspan><tspan x="0" y="540" fill="#000100" font-family="'FuturaPT-Book'" font-size="8px">Small Help</tspan><tspan x="0" y="576" fill="#000100" font-family="'FuturaPT-Book'" font-size="8px">Close Message</tspan><tspan x="0" y="648" fill="#000100" font-family="'FuturaPT-Book'" font-size="8px">Export Icon</tspan><tspan x="0" y="684" fill="#000100" font-family="'FuturaPT-Book'" font-size="8px">Small Go</tspan><tspan x="0" y="720" fill="#000100" font-family="'FuturaPT-Book'" font-size="8px">Ratings full</tspan><tspan x="0" y="756" fill="#000100" font-family="'FuturaPT-Book'" font-size="8px">Ratings empty</tspan><tspan x="0" y="792" fill="#000100" font-family="'FuturaPT-Book'" font-size="8px">Ratings half</tspan><tspan x="0" y="828" fill="#000100" font-family="'FuturaPT-Book'" font-size="8px">Bookmark</tspan><tspan x="0" y="864" fill="#000100" font-family="'FuturaPT-Book'" font-size="8px">Form View</tspan><tspan x="0" y="900" fill="#000100" font-family="'FuturaPT-Book'" font-size="8px">Card View</tspan><tspan x="0" y="936" fill="#000100" font-family="'FuturaPT-Book'" font-size="8px">Copy Bundle Content to</tspan><tspan x="0" y="972" fill="#000100" font-family="'FuturaPT-Book'" font-size="8px">Install Bundle</tspan><tspan x="0" y="1008" fill="#000100" font-family="'FuturaPT-Book'" font-size="8px">Uninstall Bundle</tspan><tspan x="0" y="1044" fill="#000100" font-family="'FuturaPT-Book'" font-size="8px">Generate New Access Key</tspan><tspan x="0" y="1080" fill="#000100" font-family="'FuturaPT-Book'" font-size="8px">Online</tspan><tspan x="0" y="1116" fill="#000100" font-family="'FuturaPT-Book'" font-size="8px">Offline</tspan></text>
		</g>
	</g>
	<path d="M10,0C4.5,0,0,4.5,0,10s4.5,10,10,10s10-4.5,10-10S15.5,0,10,0z M14.7,13.3c0.2,0.2,0.3,0.4,0.3,0.7c0,0.3-0.1,0.5-0.3,0.7
		S14.3,15,14,15s-0.5-0.1-0.7-0.3L10,11.4l-3.3,3.3C6.5,14.9,6.3,15,6,15c-0.3,0-0.5-0.1-0.7-0.3S5,14.3,5,14s0.1-0.5,0.3-0.7
		L8.6,10L5.3,6.7c-0.4-0.4-0.4-1,0-1.4C5.5,5.1,5.7,5,6,5c0.3,0,0.5,0.1,0.7,0.3L10,8.6l3.3-3.3C13.5,5.1,13.7,5,14,5
		s0.5,0.1,0.7,0.3S15,5.7,15,6c0,0.3-0.1,0.5-0.3,0.7L11.4,10L14.7,13.3z"/>
</g>
<g id="Isolation_Mode">
</g>
<g id="Layer_3">
</g>
</svg>
