<svg id="Layer_1" data-name="Layer 1" xmlns="http://www.w3.org/2000/svg" viewBox="0 0 20 20"><defs><style>.cls-1{fill:#ccc;}.cls-2{fill:#ff580e;}</style></defs><rect class="cls-1" x="2.45" y="11.13" width="0.92" height="5.39"/><rect class="cls-1" x="14.32" y="13.43" width="5.52" height="0.92" transform="translate(3.17 30.95) rotate(-89.92)"/><polygon class="cls-1" points="10.44 18.66 9.54 18.66 9.52 5.61 10.42 5.61 10.44 18.66"/><polygon class="cls-1" points="2.73 12.05 2.73 11.13 17.22 11.13 17.22 12.04 2.73 12.05"/><circle class="cls-2" cx="2.91" cy="16.8" r="2.92"/><circle class="cls-2" cx="9.99" cy="16.8" r="2.92"/><circle class="cls-2" cx="17.08" cy="16.8" r="2.92"/><path class="cls-2" d="M11.3,4.3a2.34,2.34,0,1,0-2.61,0,0.13,0.13,0,0,1,0,.23A4,4,0,0,0,6,8.22a0.13,0.13,0,0,0,.09.13A14.31,14.31,0,0,0,10,8.88a14.21,14.21,0,0,0,3.92-.54A0.13,0.13,0,0,0,14,8.22,4,4,0,0,0,11.3,4.53,0.14,0.14,0,0,1,11.3,4.3Z"/></svg>