<?xml version="1.0" encoding="utf-8"?>
<!-- Generator: Adobe Illustrator 22.0.1, SVG Export Plug-In . SVG Version: 6.00 Build 0)  -->
<svg version="1.1" xmlns="http://www.w3.org/2000/svg" xmlns:xlink="http://www.w3.org/1999/xlink" x="0px" y="0px"
	 viewBox="0 0 20 20" enable-background="new 0 0 20 20" xml:space="preserve">
<g id="Layer_1">
</g>
<g id="_x3C_Layer_x3E_">
	<g>
		<path fill-rule="evenodd" clip-rule="evenodd" fill="#DDDDDD" d="M7,14c0-3.9,3.1-7,7-7c0.3,0,0.7,0,1,0.1V2c0-1.1-0.9-2-2-2H2
			C0.9,0,0,0.9,0,2v15c0,1.1,0.9,2,2,2h7.1C7.8,17.7,7,16,7,14z"/>
		<rect x="2" y="4" fill-rule="evenodd" clip-rule="evenodd" fill="#000D80" width="8" height="2"/>
		<path fill-rule="evenodd" clip-rule="evenodd" fill="#BBBBBB" d="M8.3,10H2v2h5.3C7.5,11.3,7.8,10.6,8.3,10z"/>
		<path fill-rule="evenodd" clip-rule="evenodd" fill="#BBBBBB" d="M7,14c0-0.3,0-0.7,0.1-1H2v2h5.1C7,14.7,7,14.4,7,14z"/>
		<path fill-rule="evenodd" clip-rule="evenodd" fill="#BBBBBB" d="M13,7.1L13,7.1L2,7v2h7.1C10.2,8,11.5,7.3,13,7.1z"/>
	</g>
	<path fill="#3399FF" d="M14,8c-3.3,0-6,2.7-6,6c0,3.3,2.7,6,6,6c3.3,0,6-2.7,6-6C20,10.7,17.3,8,14,8z"/>
	<path fill-rule="evenodd" clip-rule="evenodd" fill="#FFFFFF" d="M17.5,17.3L15.2,15c0.5-0.5,0.8-1.2,0.8-2c0-1.7-1.3-3-3-3
		s-3,1.3-3,3s1.3,3,3,3c0.5,0,1-0.1,1.4-0.4l2.3,2.3L17.5,17.3z M11,13c0-1.1,0.9-2,2-2s2,0.9,2,2s-0.9,2-2,2S11,14.1,11,13z"/>
</g>
</svg>
