<?xml version="1.0" encoding="utf-8"?>
<!-- Generator: Adobe Illustrator 21.0.0, SVG Export Plug-In . SVG Version: 6.00 Build 0)  -->
<svg version="1.1" id="Layer_1" xmlns="http://www.w3.org/2000/svg" xmlns:xlink="http://www.w3.org/1999/xlink" x="0px" y="0px"
	 viewBox="0 0 20 20" enable-background="new 0 0 20 20" xml:space="preserve">
<g>
	<path fill="#FFFFFF" d="M1.7,10.7c-1.3,2.5-0.8,5.6,1.4,7.5c2.6,2.3,6.5,2,8.7-0.6c0.6-0.7,1-1.5,1.3-2.4c1.9,0.2,3.9-0.5,5.3-2.1
		c2.3-2.6,2-6.5-0.6-8.7c-1.8-1.6-4.2-1.9-6.3-1.1c-0.3-0.5-0.7-1-1.2-1.4c-2.6-2.3-6.5-2-8.7,0.6C-0.5,4.8-0.4,8.4,1.7,10.7z"/>
	
		<ellipse transform="matrix(0.9916 -0.1297 0.1297 0.9916 -1.0621 1.8578)" opacity="0.8" fill="#FCBC06" cx="13.7" cy="9.1" rx="5.3" ry="5.3"/>
	
		<ellipse transform="matrix(0.9916 -0.1297 0.1297 0.9916 -0.7895 0.8675)" opacity="0.8" fill="#2473E4" cx="6.3" cy="6.5" rx="5.3" ry="5.3"/>
	
		<ellipse transform="matrix(0.9916 -0.1297 0.1297 0.9916 -1.6908 1.0456)" opacity="0.8" fill="#EC1C24" cx="7.2" cy="13.5" rx="5.3" ry="5.3"/>
</g>
</svg>
