<svg id="Layer_1" data-name="Layer 1" xmlns="http://www.w3.org/2000/svg" viewBox="0 0 20 20"><defs><style>.cls-1{fill:#ea1f27;}.cls-2{fill:#fff;}</style></defs><title>Error</title><circle class="cls-1" cx="10" cy="10" r="10"/><path class="cls-2" d="M13.49,14.17A0.68,0.68,0,0,1,13,14l-3-3L7,14a0.7,0.7,0,0,1-1,0,0.69,0.69,0,0,1,0-1l3-3L6,7A0.69,0.69,0,0,1,6,6,0.71,0.71,0,0,1,7,6l3,3,3-3a0.71,0.71,0,0,1,1,0,0.69,0.69,0,0,1,0,1l-3,3,3,3A0.69,0.69,0,0,1,13.49,14.17Z" transform="translate(0 0)"/></svg>