<?xml version="1.0" encoding="utf-8"?>
<!-- Generator: Adobe Illustrator 21.0.0, SVG Export Plug-In . SVG Version: 6.00 Build 0)  -->
<svg version="1.1" id="Layer_1" xmlns="http://www.w3.org/2000/svg" xmlns:xlink="http://www.w3.org/1999/xlink" x="0px" y="0px"
	 viewBox="0 0 20 20" enable-background="new 0 0 20 20" xml:space="preserve">
<g>
	<circle fill="#EA1F27" cx="10" cy="10" r="10"/>
	<path fill="#FFFFFF" d="M13.5,14.2c-0.2,0-0.4-0.1-0.5-0.2l-3-3l-3,3c-0.3,0.3-0.7,0.3-1,0c-0.1-0.1-0.2-0.3-0.2-0.5
		c0-0.2,0.1-0.4,0.2-0.5l3-3L6,7C5.8,6.7,5.8,6.3,6,6c0.3-0.3,0.7-0.3,1,0l3,3l3-3c0.3-0.3,0.7-0.3,1,0c0.1,0.1,0.2,0.3,0.2,0.5
		c0,0.2-0.1,0.4-0.2,0.5l-3,3l3,3c0.1,0.1,0.2,0.3,0.2,0.5c0,0.2-0.1,0.4-0.2,0.5C13.8,14.1,13.7,14.2,13.5,14.2z"/>
</g>
</svg>
