<?xml version="1.0" encoding="utf-8"?>
<!-- Generator: Adobe Illustrator 21.0.0, SVG Export Plug-In . SVG Version: 6.00 Build 0)  -->
<svg version="1.1" xmlns="http://www.w3.org/2000/svg" xmlns:xlink="http://www.w3.org/1999/xlink" x="0px" y="0px"
	 viewBox="0 0 20 20" enable-background="new 0 0 20 20" xml:space="preserve">
<g id="Layer_1">
	<g>
		<path d="M10,4.4c-2.9,0-7.8-0.5-7.8-2.2C2.2,0.5,7.1,0,10,0c2.9,0,7.8,0.5,7.8,2.2C17.8,3.9,12.9,4.4,10,4.4z M10,1
			C5.9,1,3.5,1.8,3.3,2.2C3.5,2.6,5.9,3.3,10,3.3c4,0,6.4-0.7,6.7-1.2C16.4,1.8,14,1,10,1z"/>
		<path d="M8.1,20c-0.2-0.1-0.3-0.3-0.3-0.5v-6.9C7,12.2,5.1,11,3.7,8.6c-1.8-3-1.5-6.3-1.5-6.4l1,0.1c0,0-0.3,3.1,1.3,5.8
			c1.6,2.7,3.9,3.7,3.9,3.7c0.2,0.1,0.3,0.3,0.3,0.5v6.3l2.3-1.5v-4.7c0-0.2,0.1-0.4,0.3-0.5c0,0,2.3-1,3.9-3.7
			c1.6-2.7,1.3-5.8,1.3-5.8l1-0.1c0,0.1,0.3,3.4-1.5,6.4c-1.4,2.4-3.3,3.6-4.1,4v4.7c0,0.2-0.1,0.3-0.2,0.4l-3.3,2.2
			C8.5,20,8.2,20,8.1,20z"/>
	</g>
	<g>
		<g>
			<rect x="-102.7" y="-318.5" fill="none" width="103.2" height="1015.2"/>
			<text transform="matrix(1 0 0 1 -102.7036 -311.8024)"><tspan x="0" y="0" fill="#000100" font-family="'FuturaPT-Book'" font-size="8px">Menu Selection Menu  </tspan><tspan x="0" y="36" fill="#000100" font-family="'FuturaPT-Book'" font-size="8px">Arrow (10x6)</tspan><tspan x="0" y="72" fill="#000100" font-family="'FuturaPT-Book'" font-size="8px">Down Arrow (6x10)</tspan><tspan x="0" y="108" fill="#000100" font-family="'FuturaPT-Book'" font-size="8px">Action Menu </tspan><tspan x="0" y="144" fill="#000100" font-family="'FuturaPT-Book'" font-size="8px">Search </tspan><tspan x="0" y="180" fill="#000100" font-family="'FuturaPT-Book'" font-size="8px">In Row Apply(12x9)</tspan><tspan x="0" y="216" fill="#000100" font-family="'FuturaPT-Book'" font-size="8px">In Row Clear(10x10)</tspan><tspan x="0" y="252" fill="#000100" font-family="'FuturaPT-Book'" font-size="8px">Drop Down Arrow (9x6px)</tspan><tspan x="0" y="288" fill="#000100" font-family="'FuturaPT-Book'" font-size="8px">Edit</tspan><tspan x="0" y="324" fill="#000100" font-family="'FuturaPT-Book'" font-size="8px">Filter</tspan><tspan x="0" y="360" fill="#000100" font-family="'FuturaPT-Book'" font-size="8px">Sort</tspan><tspan x="0" y="396" fill="#000100" font-family="'FuturaPT-Book'" font-size="8px">Add</tspan><tspan x="0" y="432" fill="#000100" font-family="'FuturaPT-Book'" font-size="8px">Close</tspan><tspan x="0" y="468" fill="#000100" font-family="'FuturaPT-Book'" font-size="8px">Help</tspan><tspan x="0" y="504" fill="#000100" font-family="'FuturaPT-Book'" font-size="8px">Collapse Control (9x6px)</tspan><tspan x="0" y="540" fill="#000100" font-family="'FuturaPT-Book'" font-size="8px">Expand</tspan><tspan x="0" y="576" fill="#000100" font-family="'FuturaPT-Book'" font-size="8px">Collapse</tspan><tspan x="0" y="612" fill="#000100" font-family="'FuturaPT-Book'" font-size="8px">Validate</tspan><tspan x="0" y="648" fill="#000100" font-family="'FuturaPT-Book'" font-size="8px">Add</tspan><tspan x="0" y="684" fill="#000100" font-family="'FuturaPT-Book'" font-size="8px">Import</tspan><tspan x="0" y="720" fill="#000100" font-family="'FuturaPT-Book'" font-size="8px">Refresh</tspan><tspan x="0" y="756" fill="#000100" font-family="'FuturaPT-Book'" font-size="8px">Zoom Out</tspan></text>
		</g>
	</g>
</g>
<g id="Isolation_Mode">
</g>
</svg>
