<?xml version="1.0" encoding="utf-8"?>
<!-- Generator: Adobe Illustrator 19.2.0, SVG Export Plug-In . SVG Version: 6.00 Build 0)  -->
<svg version="1.1" id="Layer_3" xmlns="http://www.w3.org/2000/svg" xmlns:xlink="http://www.w3.org/1999/xlink" x="0px" y="0px"
	 viewBox="0 0 16 12" style="enable-background:new 0 0 16 12;" xml:space="preserve">
<path d="M15.5,1.1h-15C0.2,1.1,0,0.9,0,0.5C0,0.2,0.2,0,0.5,0h15C15.8,0,16,0.2,16,0.5C16,0.9,15.8,1.1,15.5,1.1z M15.5,6.5h-15
	C0.2,6.5,0,6.3,0,5.9c0-0.3,0.2-0.5,0.5-0.5h15c0.3,0,0.5,0.2,0.5,0.5C16,6.3,15.8,6.5,15.5,6.5z M15.5,11.9h-15
	c-0.3,0-0.5-0.2-0.5-0.6c0-0.3,0.2-0.5,0.5-0.5h15c0.3,0,0.5,0.2,0.5,0.5C16,11.7,15.8,11.9,15.5,11.9z"/>
</svg>
