<?xml version="1.0" encoding="utf-8"?>
<!-- Generator: Adobe Illustrator 16.0.4, SVG Export Plug-In . SVG Version: 6.00 Build 0)  -->
<!DOCTYPE svg PUBLIC "-//W3C//DTD SVG 1.1//EN" "http://www.w3.org/Graphics/SVG/1.1/DTD/svg11.dtd">
<svg version="1.1" id="Layer_1" xmlns="http://www.w3.org/2000/svg" xmlns:xlink="http://www.w3.org/1999/xlink" x="0px" y="0px"
	 width="7.318px" height="13.783px" viewBox="0.569 0 7.318 13.783" enable-background="new 0.569 0 7.318 13.783"
	 xml:space="preserve">
<g>
	<g>
		<path d="M3.513,11.193c-0.201,0-0.363,0.164-0.363,0.362v1.455c0,0.201,0.162,0.363,0.363,0.363c0.2,0,0.361-0.162,0.361-0.363
			v-1.455C3.874,11.357,3.713,11.193,3.513,11.193"/>
		<path d="M3.513,13.749c-0.407,0-0.738-0.33-0.738-0.738v-1.455c0-0.405,0.331-0.735,0.738-0.735c0.405,0,0.736,0.33,0.736,0.735
			v1.455C4.249,13.419,3.918,13.749,3.513,13.749z"/>
	</g>
	<g>
		<path d="M4.24,0.374c-2.172,0-3.271,0.735-3.271,2.182c0,0.201,0.161,0.364,0.362,0.364s0.363-0.163,0.363-0.364
			c0-0.677,0.289-1.454,2.545-1.454c1.547,0,2.545,0.856,2.545,2.182c0,1.006-1.43,1.942-1.979,2.22
			C4.738,5.538,3.149,6.358,3.149,8.735v0.364c0,0.201,0.161,0.363,0.362,0.363c0.2,0,0.362-0.162,0.362-0.363V8.735
			c0-1.91,1.206-2.558,1.254-2.582c0.099-0.048,2.384-1.21,2.384-2.871C7.513,1.571,6.166,0.374,4.24,0.374"/>
		<path d="M3.513,9.839c-0.407,0-0.738-0.33-0.738-0.736V8.738c0-2.552,1.671-3.472,1.861-3.568c0.58-0.292,1.772-1.137,1.772-1.886
			c0-1.114-0.832-1.807-2.17-1.807c-2.17,0-2.17,0.729-2.17,1.079c0,0.407-0.331,0.739-0.738,0.739
			c-0.405,0-0.737-0.332-0.737-0.739C0.593,1.389,1.226,0,4.239,0C6.387,0,7.887,1.35,7.887,3.284c0,1.927-2.567,3.194-2.595,3.208
			C5.264,6.508,4.249,7.074,4.249,8.738v0.364C4.249,9.509,3.918,9.839,3.513,9.839z"/>
	</g>
</g>
</svg>
