<?xml version="1.0" encoding="utf-8"?>
<!-- Generator: Adobe Illustrator 20.1.0, SVG Export Plug-In . SVG Version: 6.00 Build 0)  -->
<svg version="1.1" id="Layer_1" xmlns="http://www.w3.org/2000/svg" xmlns:xlink="http://www.w3.org/1999/xlink" x="0px" y="0px"
	 viewBox="0 0 20 20" style="enable-background:new 0 0 20 20;" xml:space="preserve">
<style type="text/css">
	.st0{fill:#DC370C;}
	.st1{fill:#DDDDDD;}
	.st2{display:none;fill:#2473E4;}
	.st3{fill:#424242;}
	.st4{fill:#848484;}
</style>
<g>
	<g>
		<polygon class="st0" points="10,0.1 9.8,0.1 5.5,3.9 5.5,1.6 2.6,1.6 2.6,6.8 0,9.7 20,9.7 		"/>
		<polygon class="st1" points="9.8,3.1 9.9,3.1 2.9,9.7 2.7,17.8 16.6,17.8 16.6,9.7 		"/>
		<rect x="2.7" y="17" class="st1" width="13.9" height="3"/>
	</g>
	<rect x="7.5" y="11.9" class="st2" width="4.5" height="4.5"/>
	<rect x="2.9" y="9.7" class="st1" width="13.7" height="10.3"/>
	<path class="st3" d="M11.5,12.4c1.2-0.8,1.6-2.4,0.7-3.8C11.4,7.3,9.7,7.1,8.4,8s-1.6,2.4-0.7,3.8c0.2,0.3,0.4,0.6,0.7,0.7
		c0.1,0,0.1,0.1,0.1,0.2c0,0,0,0-0.1,0.1c-1.8,0.6-3,2.3-3,4.1c0,0.1,0,0.1,0.1,0.1c1.4,0.4,3,0.7,4.4,0.7s3.1-0.2,4.4-0.7
		c0.1,0,0.1-0.1,0.1-0.1c-0.1-1.9-1.3-3.5-3.1-4.2C11.4,12.7,11.4,12.5,11.5,12.4C11.4,12.4,11.4,12.4,11.5,12.4z"/>
	<path class="st4" d="M16.6,15.5c0.6-0.4,0.8-1.2,0.4-1.9c-0.4-0.6-1.2-0.8-1.9-0.4c-0.6,0.4-0.8,1.2-0.4,1.9
		c0.1,0.2,0.2,0.3,0.4,0.4c0,0,0.1,0.1,0,0.1l0,0c-0.9,0.3-1.4,1.2-1.6,2.1c0,0,0,0.1,0.1,0.1c0.7,0.2,1.4,0.3,2.2,0.3
		s1.4-0.1,2.2-0.3c0,0,0.1,0,0.1-0.1C18.3,16.8,17.6,16,16.6,15.5C16.5,15.6,16.5,15.5,16.6,15.5L16.6,15.5z"/>
	<path class="st4" d="M4.9,14.9c0.9-0.4,1.1-1.6,0.6-2.4C4.9,11.7,3.8,11.5,3,12c-0.8,0.4-1,1.7-0.6,2.4c0.1,0.1,0.3,0.3,0.6,0.4
		c0,0,0.1,0.1,0,0.1l0,0c-1.2,0.6-2,1.7-2,2.9c0,0,0,0.1,0.1,0.1c0.9,0.3,1.9,0.4,3,0.4s1.9-0.1,3-0.4l0.1-0.1c0-1.2-0.8-2.3-2-2.8
		C4.9,15.1,4.9,15,4.9,14.9C4.9,15,4.9,14.9,4.9,14.9z"/>
</g>
</svg>
