<?xml version="1.0" encoding="utf-8"?>
<!-- Generator: Adobe Illustrator 19.2.0, SVG Export Plug-In . SVG Version: 6.00 Build 0)  -->
<svg version="1.1" id="Layer_1" xmlns="http://www.w3.org/2000/svg" xmlns:xlink="http://www.w3.org/1999/xlink" x="0px" y="0px"
	 viewBox="0 0 20 20" style="enable-background:new 0 0 20 20;" xml:space="preserve">
<style type="text/css">
	.st0{fill-rule:evenodd;clip-rule:evenodd;fill:#2473E4;}
</style>
<path class="st0" d="M17,20H3c-1.6,0-3-1.4-3-3L0,3c0-1.6,1.4-3,3-3l14,0c1.6,0,3,1.4,3,3v14C20,18.6,18.6,20,17,20z M10.7,14.8
	v-4.1h4.1c0.4,0,0.7-0.3,0.7-0.7s-0.3-0.7-0.7-0.7h-4.1V5.2c0-0.4-0.3-0.7-0.7-0.7c-0.4,0-0.7,0.3-0.7,0.7v4.1H5.2
	c-0.4,0-0.7,0.3-0.7,0.7s0.3,0.7,0.7,0.7h4.1v4.1c0,0.4,0.3,0.7,0.7,0.7C10.4,15.5,10.7,15.2,10.7,14.8z"/>
</svg>
