<?xml version="1.0" encoding="utf-8"?>
<!-- Generator: Adobe Illustrator 20.1.0, SVG Export Plug-In . SVG Version: 6.00 Build 0)  -->
<svg version="1.1" id="Layer_1" xmlns="http://www.w3.org/2000/svg" xmlns:xlink="http://www.w3.org/1999/xlink" x="0px" y="0px"
	 viewBox="0 0 20 20" style="enable-background:new 0 0 20 20;" xml:space="preserve">
<style type="text/css">
	.st0{fill:#FF580E;}
	.st1{fill:#FFFFFF;}
</style>
<circle class="st0" cx="10" cy="10" r="10"/>
<path class="st1" d="M11.7,10c1.4-0.9,1.8-2.8,0.8-4.2S9.7,4.1,8.4,5S6.6,7.8,7.5,9.2C7.7,9.5,8,9.8,8.4,10c0.1,0,0.1,0.1,0.1,0.2
	c0,0,0,0.1-0.1,0.1C6.3,11,5,12.9,4.9,15c0,0.1,0,0.1,0.1,0.2c1.6,0.5,3.3,0.7,5,0.7c1.7,0,3.4-0.2,5-0.7c0.1,0,0.1-0.1,0.1-0.2
	c-0.1-2.1-1.4-4-3.4-4.7C11.6,10.3,11.6,10.1,11.7,10C11.6,10,11.7,10,11.7,10z"/>
</svg>
