<?xml version="1.0" encoding="utf-8"?>
<!-- Generator: Adobe Illustrator 20.1.0, SVG Export Plug-In . SVG Version: 6.00 Build 0)  -->
<svg version="1.1" id="Layer_1" xmlns="http://www.w3.org/2000/svg" xmlns:xlink="http://www.w3.org/1999/xlink" x="0px" y="0px"
	 viewBox="0 0 20 20" style="enable-background:new 0 0 20 20;" xml:space="preserve">
<style type="text/css">
	.st0{fill:#459E0F;}
	.st1{fill:#FFFFFF;}
	.st2{fill:#FFD300;}
</style>
<path class="st0" d="M17,20H3c-1.6,0-3-1.4-3-3V3c0-1.6,1.4-3,3-3h14c1.6,0,3,1.4,3,3v14C20,18.6,18.6,20,17,20z"/>
<rect x="1.5" y="11.6" class="st1" width="16.9" height="6.6"/>
<rect x="2.1" y="12.1" width="0.4" height="5.6"/>
<rect x="3.3" y="12.2" width="0.7" height="5.6"/>
<rect x="11.8" y="12.1" width="0.2" height="5.6"/>
<rect x="14.7" y="12.1" width="0.4" height="5.6"/>
<rect x="10.8" y="12.1" width="0.4" height="5.6"/>
<rect x="6.6" y="12.1" width="1.5" height="5.6"/>
<rect x="9.3" y="12.1" width="0.8" height="5.6"/>
<rect x="4.5" y="12.1" width="0.2" height="5.6"/>
<rect x="5.2" y="12.2" width="0.6" height="5.6"/>
<rect x="16" y="12.1" width="0.2" height="5.6"/>
<rect x="16.7" y="12.1" width="1" height="5.6"/>
<rect x="12.9" y="12.1" width="1.2" height="5.6"/>
<rect x="10.8" class="st2" width="6.3" height="7"/>
<polygon class="st0" points="13.9,4.1 18.5,7.2 9.3,7.2 "/>
</svg>
