<svg id="Layer_1" data-name="Layer 1" xmlns="http://www.w3.org/2000/svg" viewBox="0 0 18.98 20"><title>queries</title><polygon points="12.5 11.33 10.16 13.36 16.8 20 18.98 17.81 12.5 11.33" fill="#ddd" fill-rule="evenodd"/><path d="M8.77,11.55A4.7,4.7,0,0,1,3,5.76,4.64,4.64,0,0,1,6.22,2.52,4.7,4.7,0,0,1,12,8.31,4.64,4.64,0,0,1,8.77,11.55ZM8.25,0a7,7,0,1,0,6.24,6.24A7,7,0,0,0,8.25,0Z" transform="translate(-0.46 0)" fill="#67b7f9" fill-rule="evenodd"/><path d="M7.49,9.85a.6.6,0,0,1-.6-.6V7.64H5.28a.61.61,0,0,1,0-1.21H6.89V4.82a.6.6,0,0,1,1.2,0V6.43H9.71a.61.61,0,0,1,0,1.21H8.09V9.25A.6.6,0,0,1,7.49,9.85Z" transform="translate(-0.46 0)" fill="#ddd"/></svg>