<svg id="Layer_1" data-name="Layer 1" xmlns="http://www.w3.org/2000/svg" viewBox="0 0 20 20"><defs><style>.cls-1{fill:#f1f1f1;}.cls-2{fill:#ff580e;}.cls-3{fill:#c9d0d3;}.cls-4{fill:#fff;}</style></defs><rect class="cls-1" y="4.06" width="20" height="13.59" rx="1" ry="1"/><rect class="cls-2" x="1.39" y="2.68" width="5.26" height="1.72"/><rect class="cls-3" x="1.07" y="10.98" width="6.3" height="0.73"/><rect class="cls-3" x="1.07" y="12.44" width="3.45" height="0.73"/><rect class="cls-3" x="1.07" y="9.52" width="6.3" height="0.73"/><rect class="cls-3" x="1.07" y="8.05" width="6.3" height="0.73"/><rect class="cls-4" x="9.55" y="6.71" width="9.44" height="8.29"/><path class="cls-2" d="M15.28,10.75a1.8,1.8,0,1,0-2,0,0.1,0.1,0,0,1,0,.18,3.1,3.1,0,0,0-2.06,2.83,0.1,0.1,0,0,0,.07.1,11,11,0,0,0,3,.41,10.91,10.91,0,0,0,3-.41,0.1,0.1,0,0,0,.07-0.1,3.11,3.11,0,0,0-2.06-2.83A0.11,0.11,0,0,1,15.28,10.75Z"/></svg>