<?xml version="1.0" encoding="utf-8"?>
<!-- Generator: Adobe Illustrator 15.1.0, SVG Export Plug-In . SVG Version: 6.00 Build 0)  -->
<!DOCTYPE svg PUBLIC "-//W3C//DTD SVG 1.1//EN" "http://www.w3.org/Graphics/SVG/1.1/DTD/svg11.dtd">
<svg version="1.1" id="Layer_1" xmlns="http://www.w3.org/2000/svg" xmlns:xlink="http://www.w3.org/1999/xlink" x="0px" y="0px"
	 width="512px" height="512px" viewBox="0 0 512 512" enable-background="new 0 0 512 512" xml:space="preserve">
<path id="magnifier-icon" d="M510.104,445.444L374.556,309.896c19.82-31.238,31.315-68.254,31.315-107.909
	C405.873,90.612,315.262,0,203.883,0C92.507,0,1.895,90.612,1.895,201.988c0,111.376,90.612,201.988,201.988,201.988
	c37.687,0,72.988-10.385,103.214-28.429L443.549,512L510.104,445.444z M77.194,201.988c0-69.857,56.832-126.69,126.688-126.69
	c69.857,0,126.691,56.833,126.691,126.69S273.74,328.677,203.883,328.677C134.026,328.677,77.194,271.845,77.194,201.988z"/>
</svg>
