<?xml version="1.0" encoding="utf-8"?>
<!-- Generator: Adobe Illustrator 21.0.0, SVG Export Plug-In . SVG Version: 6.00 Build 0)  -->
<svg version="1.1" xmlns="http://www.w3.org/2000/svg" xmlns:xlink="http://www.w3.org/1999/xlink" x="0px" y="0px"
	 viewBox="0 0 20 20" enable-background="new 0 0 20 20" xml:space="preserve">
<g id="Layer_1">
	<path fill-rule="evenodd" clip-rule="evenodd" d="M9,20c-0.8,0-1.4-0.6-1.4-1.4l-0.3-2l-1.7,1.2c-0.3,0.3-0.6,0.4-1,0.4
		c-0.4,0-0.7-0.1-1-0.4l-1.5-1.5c-0.5-0.5-0.5-1.4,0-2l1.2-1.6c0,0-2-0.3-2-0.3C0.6,12.4,0,11.8,0,11V9c0-0.8,0.6-1.4,1.4-1.4l2-0.3
		L2.2,5.6C2,5.4,1.8,5,1.8,4.6c0-0.4,0.1-0.7,0.4-1l1.5-1.5c0.3-0.3,0.6-0.4,1-0.4c0.4,0,0.7,0.1,1,0.4l1.6,1.2l0.3-2
		C7.6,0.6,8.2,0,9,0H11c0.8,0,1.4,0.6,1.4,1.4l0.3,2l1.6-1.2c0.3-0.3,0.6-0.4,1-0.4c0.4,0,0.7,0.1,1,0.4l1.5,1.5
		c0.3,0.3,0.4,0.6,0.4,1c0,0.4-0.2,0.7-0.4,1l-1.2,1.6c0,0,2,0.3,2,0.3C19.4,7.6,20,8.2,20,9V11c0,0.8-0.6,1.4-1.4,1.4l-2,0.3
		l1.2,1.7c0.5,0.5,0.5,1.4,0,2l-1.5,1.5c-0.3,0.3-0.6,0.4-1,0.4c-0.4,0-0.7-0.1-1-0.4l-1.6-1.2l-0.3,2c0,0.8-0.6,1.4-1.4,1.4H9z
		 M8.6,18.6C8.6,18.8,8.8,19,9,19H11c0.2,0,0.4-0.2,0.4-0.4l0.6-3.8l3.1,2.2c0.1,0.1,0.2,0.1,0.3,0.1c0.1,0,0.2,0,0.2-0.1l1.5-1.5
		c0.1-0.1,0.1-0.2,0.1-0.3c0-0.1,0-0.2-0.1-0.3L14.8,12l3.8-0.6c0.2,0,0.4-0.2,0.4-0.4V9c0-0.2-0.2-0.4-0.4-0.4L14.8,8L17,4.9
		c0.2-0.2,0.2-0.4,0-0.5l-1.5-1.5c-0.1-0.1-0.2-0.1-0.2-0.1c-0.1,0-0.2,0-0.3,0.1L12,5.2l-0.6-3.8C11.4,1.2,11.2,1,11,1H9
		C8.8,1,8.6,1.2,8.6,1.4L8,5.2L4.9,3C4.8,2.9,4.7,2.8,4.6,2.8c-0.1,0-0.2,0-0.2,0.1L2.9,4.4c-0.1,0.1-0.1,0.4,0,0.5L5.2,8L1.4,8.6
		C1.2,8.6,1,8.8,1,9V11c0,0.2,0.2,0.4,0.4,0.4L5.2,12L3,15.1c-0.2,0.2-0.2,0.4,0,0.5l1.5,1.5c0.1,0.1,0.2,0.1,0.2,0.1
		c0.1,0,0.2,0,0.3-0.1L8,14.8L8.6,18.6z M10,13.7c-2,0-3.7-1.6-3.7-3.7S8,6.3,10,6.3c2,0,3.7,1.6,3.7,3.7S12,13.7,10,13.7z M10,7.3
		c-1.5,0-2.6,1.2-2.6,2.6c0,1.5,1.2,2.6,2.6,2.6c1.5,0,2.6-1.2,2.6-2.6C12.6,8.5,11.5,7.3,10,7.3z"/>
	<g>
		<g>
		</g>
	</g>
</g>
<g id="Isolation_Mode">
</g>
</svg>
