<svg id="Layer_1" data-name="Layer 1" xmlns="http://www.w3.org/2000/svg" viewBox="0 0 20 20"><defs><style>.cls-1{fill:#999;}.cls-2{fill:#fff;fill-rule:evenodd;}.cls-3{fill:#2473e4;}</style></defs><circle class="cls-1" cx="6.85" cy="3.31" r="3.31"/><path class="cls-2" d="M8.23,3.89L7.06,3.32V1.38a0.25,0.25,0,0,0-.49,0V3.46h0a0.21,0.21,0,0,0,.12.21L8,4.33a0.21,0.21,0,0,0,.29-0.1l0-.06A0.21,0.21,0,0,0,8.23,3.89Z"/><circle class="cls-1" cx="15.7" cy="9.88" r="4.32"/><path class="cls-2" d="M17.5,10.64L16,9.89V7.35a0.32,0.32,0,0,0-.64,0v2.74a0.28,0.28,0,0,0,.15.28l1.73,0.84a0.28,0.28,0,0,0,.37-0.13l0-.07A0.28,0.28,0,0,0,17.5,10.64Z"/><circle class="cls-3" cx="5.78" cy="14.2" r="5.8"/><path class="cls-2" d="M8.2,15.22l-2.05-1V10.81a0.43,0.43,0,0,0-.86,0v3.68a0.37,0.37,0,0,0,.21.37L7.82,16a0.38,0.38,0,0,0,.5-0.17l0-.1A0.38,0.38,0,0,0,8.2,15.22Z"/></svg>