<svg id="Layer_1" data-name="Layer 1" xmlns="http://www.w3.org/2000/svg" viewBox="0 0 20 20"><defs><style>.cls-1{fill:#2473e4;}.cls-2{fill:#fff;fill-rule:evenodd;}</style></defs><circle class="cls-1" cx="10.02" cy="10" r="7.6"/><path class="cls-2" d="M13.19,11.34L10.5,10V5.56a0.56,0.56,0,0,0-1.13,0v4.79s0,0,0,0a0.49,0.49,0,0,0,.27.49l3.05,1.48a0.49,0.49,0,0,0,.66-0.23L13.42,12A0.49,0.49,0,0,0,13.19,11.34Z"/><path class="cls-1" d="M10,0A10,10,0,1,0,20,10,10,10,0,0,0,10,0Zm0,18.61A8.61,8.61,0,1,1,18.63,10,8.61,8.61,0,0,1,10,18.61Z"/></svg>