<?xml version="1.0" encoding="utf-8"?>
<!-- Generator: Adobe Illustrator 21.0.0, SVG Export Plug-In . SVG Version: 6.00 Build 0)  -->
<svg version="1.1" xmlns="http://www.w3.org/2000/svg" xmlns:xlink="http://www.w3.org/1999/xlink" x="0px" y="0px"
	 viewBox="0 0 20 20" enable-background="new 0 0 20 20" xml:space="preserve">
<g id="Layer_1">
	<g>
		<path d="M6.8,13.4c-0.3-0.3-0.2-0.6,0.1-0.9L9.4,10L6.8,7.4C6.6,7.2,6.5,6.8,6.7,6.6C7,6.3,7.3,6.4,7.6,6.6l2.6,2.6l2.5-2.5
			c0.3-0.3,0.6-0.3,0.9-0.1c0.2,0.2,0.2,0.6-0.1,0.8L10.9,10l2.6,2.6c0.2,0.2,0.3,0.6,0.1,0.8c-0.2,0.2-0.6,0.1-0.8-0.1l-2.6-2.6
			l-2.6,2.6C7.4,13.5,7.1,13.7,6.8,13.4z"/>
		<path d="M20.2,10c0,5.5-4.5,10-10,10s-10-4.5-10-10s4.5-10,10-10S20.2,4.5,20.2,10z M10.2,1.1c-4.9,0-8.9,4-8.9,8.9s4,8.9,8.9,8.9
			s8.9-4,8.9-8.9S15.1,1.1,10.2,1.1z"/>
	</g>
	<g>
		<g>
			<rect x="-97.8" y="-429.2" fill="none" width="103.2" height="1015.2"/>
			<text transform="matrix(1 0 0 1 -97.7766 -422.499)"><tspan x="0" y="0" fill="#000100" font-family="'FuturaPT-Book'" font-size="8px">Menu Selection Menu  </tspan><tspan x="0" y="36" fill="#000100" font-family="'FuturaPT-Book'" font-size="8px">Arrow (10x6)</tspan><tspan x="0" y="72" fill="#000100" font-family="'FuturaPT-Book'" font-size="8px">Down Arrow (6x10)</tspan><tspan x="0" y="108" fill="#000100" font-family="'FuturaPT-Book'" font-size="8px">Action Menu </tspan><tspan x="0" y="144" fill="#000100" font-family="'FuturaPT-Book'" font-size="8px">Search </tspan><tspan x="0" y="180" fill="#000100" font-family="'FuturaPT-Book'" font-size="8px">In Row Apply(12x9)</tspan><tspan x="0" y="216" fill="#000100" font-family="'FuturaPT-Book'" font-size="8px">In Row Clear(10x10)</tspan><tspan x="0" y="252" fill="#000100" font-family="'FuturaPT-Book'" font-size="8px">Drop Down Arrow (9x6px)</tspan><tspan x="0" y="288" fill="#000100" font-family="'FuturaPT-Book'" font-size="8px">Edit</tspan><tspan x="0" y="324" fill="#000100" font-family="'FuturaPT-Book'" font-size="8px">Filter</tspan><tspan x="0" y="360" fill="#000100" font-family="'FuturaPT-Book'" font-size="8px">Sort</tspan><tspan x="0" y="396" fill="#000100" font-family="'FuturaPT-Book'" font-size="8px">Add</tspan><tspan x="0" y="432" fill="#000100" font-family="'FuturaPT-Book'" font-size="8px">Close</tspan><tspan x="0" y="468" fill="#000100" font-family="'FuturaPT-Book'" font-size="8px">Help</tspan><tspan x="0" y="504" fill="#000100" font-family="'FuturaPT-Book'" font-size="8px">Collapse Control (9x6px)</tspan><tspan x="0" y="540" fill="#000100" font-family="'FuturaPT-Book'" font-size="8px">Expand</tspan><tspan x="0" y="576" fill="#000100" font-family="'FuturaPT-Book'" font-size="8px">Collapse</tspan><tspan x="0" y="612" fill="#000100" font-family="'FuturaPT-Book'" font-size="8px">Validate</tspan><tspan x="0" y="648" fill="#000100" font-family="'FuturaPT-Book'" font-size="8px">Add</tspan><tspan x="0" y="684" fill="#000100" font-family="'FuturaPT-Book'" font-size="8px">Import</tspan><tspan x="0" y="720" fill="#000100" font-family="'FuturaPT-Book'" font-size="8px">Refresh</tspan><tspan x="0" y="756" fill="#000100" font-family="'FuturaPT-Book'" font-size="8px">Zoom Out</tspan></text>
		</g>
	</g>
</g>
<g id="Isolation_Mode">
</g>
</svg>
