<?xml version="1.0" encoding="utf-8"?>
<!-- Generator: Adobe Illustrator 21.0.0, SVG Export Plug-In . SVG Version: 6.00 Build 0)  -->
<svg version="1.1" xmlns="http://www.w3.org/2000/svg" xmlns:xlink="http://www.w3.org/1999/xlink" x="0px" y="0px"
	 viewBox="0 0 20 20" enable-background="new 0 0 20 20" xml:space="preserve">
<g id="Layer_1">
	<path d="M18.3,8.1h-6.5V1.7C11.7,0.8,11,0,10,0S8.3,0.8,8.3,1.7v6.4H1.7C0.8,8.1,0,8.9,0,9.9s0.8,1.7,1.7,1.7h6.5v6.6
		c0,1,0.8,1.7,1.7,1.7s1.7-0.8,1.7-1.7v-6.6h6.5c1,0,1.7-0.8,1.7-1.7S19.2,8.1,18.3,8.1z M18.3,10.8h-7.4v7.4c0,0.5-0.4,0.9-0.9,0.9
		s-0.9-0.4-0.9-0.9v-7.4H1.7c-0.5,0-0.9-0.4-0.9-0.9S1.2,9,1.7,9h7.4V1.6c0-0.5,0.4-0.9,0.9-0.9s0.9,0.4,0.9,0.9V9h7.4
		c0.5,0,0.9,0.4,0.9,0.9S18.8,10.8,18.3,10.8z"/>
	<g>
		<g>
			<rect x="-92.7" y="-640.3" fill="none" width="103.2" height="1015.2"/>
			<text transform="matrix(1 0 0 1 -92.7036 -633.6313)"><tspan x="0" y="0" fill="#000100" font-family="'FuturaPT-Book'" font-size="8px">Menu Selection Menu  </tspan><tspan x="0" y="36" fill="#000100" font-family="'FuturaPT-Book'" font-size="8px">Arrow (10x6)</tspan><tspan x="0" y="72" fill="#000100" font-family="'FuturaPT-Book'" font-size="8px">Down Arrow (6x10)</tspan><tspan x="0" y="108" fill="#000100" font-family="'FuturaPT-Book'" font-size="8px">Action Menu </tspan><tspan x="0" y="144" fill="#000100" font-family="'FuturaPT-Book'" font-size="8px">Search </tspan><tspan x="0" y="180" fill="#000100" font-family="'FuturaPT-Book'" font-size="8px">In Row Apply(12x9)</tspan><tspan x="0" y="216" fill="#000100" font-family="'FuturaPT-Book'" font-size="8px">In Row Clear(10x10)</tspan><tspan x="0" y="252" fill="#000100" font-family="'FuturaPT-Book'" font-size="8px">Drop Down Arrow (9x6px)</tspan><tspan x="0" y="288" fill="#000100" font-family="'FuturaPT-Book'" font-size="8px">Edit</tspan><tspan x="0" y="324" fill="#000100" font-family="'FuturaPT-Book'" font-size="8px">Filter</tspan><tspan x="0" y="360" fill="#000100" font-family="'FuturaPT-Book'" font-size="8px">Sort</tspan><tspan x="0" y="396" fill="#000100" font-family="'FuturaPT-Book'" font-size="8px">Add</tspan><tspan x="0" y="432" fill="#000100" font-family="'FuturaPT-Book'" font-size="8px">Close</tspan><tspan x="0" y="468" fill="#000100" font-family="'FuturaPT-Book'" font-size="8px">Help</tspan><tspan x="0" y="504" fill="#000100" font-family="'FuturaPT-Book'" font-size="8px">Collapse Control (9x6px)</tspan><tspan x="0" y="540" fill="#000100" font-family="'FuturaPT-Book'" font-size="8px">Expand</tspan><tspan x="0" y="576" fill="#000100" font-family="'FuturaPT-Book'" font-size="8px">Collapse</tspan><tspan x="0" y="612" fill="#000100" font-family="'FuturaPT-Book'" font-size="8px">Validate</tspan><tspan x="0" y="648" fill="#000100" font-family="'FuturaPT-Book'" font-size="8px">Add</tspan><tspan x="0" y="684" fill="#000100" font-family="'FuturaPT-Book'" font-size="8px">Import</tspan><tspan x="0" y="720" fill="#000100" font-family="'FuturaPT-Book'" font-size="8px">Refresh</tspan><tspan x="0" y="756" fill="#000100" font-family="'FuturaPT-Book'" font-size="8px">Zoom Out</tspan></text>
		</g>
	</g>
</g>
<g id="Isolation_Mode">
</g>
</svg>
