<?xml version="1.0" encoding="utf-8"?>
<!-- Generator: Adobe Illustrator 22.0.1, SVG Export Plug-In . SVG Version: 6.00 Build 0)  -->
<svg version="1.1" xmlns="http://www.w3.org/2000/svg" xmlns:xlink="http://www.w3.org/1999/xlink" x="0px" y="0px"
	 viewBox="0 0 12 12" enable-background="new 0 0 12 12" xml:space="preserve">
<g id="Layer_4">
</g>
<g id="Layer_1">
	<g>
		<path d="M1.3,10.7C0.9,10.4,1,9.9,1.4,9.5L5,5.9L1.4,2.3C1,2,0.8,1.6,1.2,1.3c0.5-0.5,0.9-0.2,1.2,0.1l3.7,3.6l3.5-3.6
			c0.4-0.4,0.8-0.5,1.2-0.1C11.2,1.7,11,2,10.6,2.4L7.1,5.9l3.6,3.7c0.3,0.3,0.4,0.9,0.1,1.2c-0.3,0.3-0.8,0.3-1.2-0.1L6.1,7
			l-3.6,3.6C2.1,11,1.7,11.1,1.3,10.7z"/>
	</g>
</g>
<g id="Isolation_Mode">
</g>
<g id="Layer_3">
</g>
</svg>
