<?xml version="1.0" encoding="utf-8"?>
<!-- Generator: Adobe Illustrator 22.0.1, SVG Export Plug-In . SVG Version: 6.00 Build 0)  -->
<svg version="1.1" xmlns="http://www.w3.org/2000/svg" xmlns:xlink="http://www.w3.org/1999/xlink" x="0px" y="0px"
	 viewBox="0 0 20 20" enable-background="new 0 0 20 20" xml:space="preserve">
<g id="Layer_4">
</g>
<g id="Layer_1">
	<g>
		<path d="M6.8,13.4c-0.3-0.3-0.2-0.6,0.1-0.9L9.4,10L6.8,7.4C6.6,7.2,6.5,6.8,6.7,6.6C7,6.3,7.3,6.4,7.6,6.6l2.6,2.6l2.5-2.5
			c0.3-0.3,0.6-0.3,0.9-0.1c0.2,0.2,0.2,0.6-0.1,0.8L10.9,10l2.6,2.6c0.2,0.2,0.3,0.6,0.1,0.8c-0.2,0.2-0.6,0.1-0.8-0.1l-2.6-2.6
			l-2.6,2.6C7.4,13.5,7.1,13.7,6.8,13.4z"/>
		<path d="M20.2,10c0,5.5-4.5,10-10,10s-10-4.5-10-10s4.5-10,10-10S20.2,4.5,20.2,10z M10.2,1.1c-4.9,0-8.9,4-8.9,8.9s4,8.9,8.9,8.9
			s8.9-4,8.9-8.9S15.1,1.1,10.2,1.1z"/>
	</g>
</g>
<g id="Isolation_Mode">
</g>
<g id="Layer_3">
</g>
</svg>
