<svg id="Layer_1" data-name="Layer 1" xmlns="http://www.w3.org/2000/svg" viewBox="0 0 12 12"><defs><style>.cls-1{fill:#ffd300;}</style></defs><title>FFD300Artboard 1</title><g id="Layer_1-2" data-name="Layer 1"><path class="cls-1" d="M6.5.6,8,3.5a.27.27,0,0,0,.3.3l3.3.5a.55.55,0,0,1,.3.9L9.5,7.4c-.1.2-.2.3-.2.5l.6,3.2a.48.48,0,0,1-.7.5L6.3,10.1a.45.45,0,0,0-.5,0L2.9,11.6a.46.46,0,0,1-.7-.5l.6-3.2a.9.9,0,0,0-.1-.5L.2,5.1c-.3-.3-.2-.8.2-.8l3.3-.5c.2,0,.3-.1.4-.3L5.6.6C5.7.2,6.3.2,6.5.6Z"/></g></svg>