<?xml version="1.0" encoding="utf-8"?>
<!-- Generator: Adobe Illustrator 21.0.0, SVG Export Plug-In . SVG Version: 6.00 Build 0)  -->
<svg version="1.1" xmlns="http://www.w3.org/2000/svg" xmlns:xlink="http://www.w3.org/1999/xlink" x="0px" y="0px"
	 viewBox="0 0 20 20" enable-background="new 0 0 20 20" xml:space="preserve">
<g id="Layer_1">
	<g>
		<g>
			<path fill-rule="evenodd" clip-rule="evenodd" d="M17,2.4h-3.3V0.8c0-0.4-0.4-0.8-0.8-0.8H7.1C6.7,0,6.3,0.4,6.3,0.8v1.6H3
				C2.2,2.4,1.6,3,1.6,3.8v1.5C1.6,6,2.2,6.6,3,6.6h0.2v12c0,0.8,0.6,1.4,1.4,1.4h10.9c0.8,0,1.4-0.6,1.4-1.4v-12H17
				c0.8,0,1.4-0.6,1.4-1.4V3.8C18.4,3,17.8,2.4,17,2.4z M7.4,1.1h5.2v1.3H7.4V1.1z M15.8,18.5c0,0.2-0.2,0.5-0.5,0.5H4.7
				c-0.2,0-0.5-0.2-0.5-0.5V6.6h11.5V18.5z M17.3,5.2c0,0.2-0.1,0.3-0.3,0.3H3c-0.2,0-0.3-0.1-0.3-0.3V3.8c0-0.2,0.1-0.3,0.3-0.3H17
				c0.2,0,0.3,0.1,0.3,0.3V5.2z M7.4,8.7H6.3v9h1.1V8.7z M10.5,8.7H9.5v9h1.1V8.7z M13.7,8.7h-1.1v9h1.1V8.7z"/>
		</g>
	</g>
	<g>
		<g>
		</g>
	</g>
</g>
<g id="Isolation_Mode">
</g>
</svg>
