<?xml version="1.0" encoding="utf-8"?>
<!-- Generator: Adobe Illustrator 22.0.1, SVG Export Plug-In . SVG Version: 6.00 Build 0)  -->
<svg version="1.1" xmlns="http://www.w3.org/2000/svg" xmlns:xlink="http://www.w3.org/1999/xlink" x="0px" y="0px"
	 viewBox="0 0 20 20" enable-background="new 0 0 20 20" xml:space="preserve">
<g id="Layer_4">
</g>
<g id="Layer_1">
	<path d="M1.6,19.4c-0.5,0-0.9-0.2-1.2-0.6c-0.4-0.4-0.5-1-0.4-1.5l1.3-4C1.6,12.6,2,12,2.5,11.5C5.2,9.1,13.5,1.8,14.2,1.1
		c0.8-0.8,2-0.8,2.8,0.1L19.4,4c0.7,0.9,0.8,2.2-0.1,2.9L8,17c-0.6,0.5-1.2,0.9-1.9,1.1C4.5,18.6,2,19.4,2,19.4
		C1.9,19.4,1.8,19.4,1.6,19.4z M1.9,18.3c0.1,0,3.9-1.3,3.9-1.3s-0.9-2.3-1-2.3l-2.4-1.5c-0.1,0.1-1.3,4.2-1.3,4.2
		c-0.1,0.3,0.1,0.6,0.2,0.7S1.8,18.3,1.9,18.3z M5.4,13.7c0.1,0.1,0.2,0.2,0.3,0.3c0.1,0.1,0.2,0.2,0.2,0.4l0.9,2.3
		C7.2,16.4,16.7,8,16.7,8l-3.8-4.3c-2.6,2.3-7.9,7-9.8,8.7L5.4,13.7z M13.7,3l3.7,4.3l1.3-1.1c0.4-0.4,0.3-1.1,0-1.5
		c0,0-2.1-2.3-2.4-2.7c-0.4-0.4-1-0.4-1.4-0.1C14.5,2.3,13.7,3,13.7,3z"/>
</g>
<g id="Isolation_Mode">
</g>
<g id="Layer_3">
</g>
</svg>
