<?xml version="1.0" encoding="utf-8"?>
<!-- Generator: Adobe Illustrator 22.0.1, SVG Export Plug-In . SVG Version: 6.00 Build 0)  -->
<svg version="1.1" xmlns="http://www.w3.org/2000/svg" xmlns:xlink="http://www.w3.org/1999/xlink" x="0px" y="0px"
	 viewBox="0 0 20 20" enable-background="new 0 0 20 20" xml:space="preserve">
<g id="Layer_4">
</g>
<g id="Layer_1">
	<path fill-rule="evenodd" clip-rule="evenodd" d="M19.9,9.9C20,10,20,10.2,20,10.2c0,0,0,0.2-0.1,0.3l-3.1,3.1
		c-0.2,0.2-0.5,0.2-0.6,0c-0.2-0.2-0.2-0.5,0-0.6l2.4-2.5H5.2c-0.2,0-0.4-0.2-0.4-0.4C4.8,10,5,9.8,5.2,9.8h13.4l-2.4-2.4
		c-0.2-0.2-0.2-0.5,0-0.6c0.2-0.2,0.5-0.2,0.6,0L19.9,9.9z M12.2,16v3H1V1h11.2v3h1V1c0-0.5-0.5-1-1-1H1C0.5,0,0,0.5,0,1v18
		c0,0.6,0.5,1,1,1h11.2c0.5,0,1-0.4,1-1v-3H12.2z"/>
</g>
<g id="Isolation_Mode">
</g>
<g id="Layer_3">
</g>
</svg>
