<?xml version="1.0" encoding="utf-8"?>
<!-- Generator: Adobe Illustrator 21.0.0, SVG Export Plug-In . SVG Version: 6.00 Build 0)  -->
<svg version="1.1" id="Layer_1" xmlns="http://www.w3.org/2000/svg" xmlns:xlink="http://www.w3.org/1999/xlink" x="0px" y="0px"
	 viewBox="0 0 20 20" enable-background="new 0 0 20 20" xml:space="preserve">
<g>
	<path fill-rule="evenodd" clip-rule="evenodd" fill="#F4B10B" d="M16.4,4.7H8L7.3,2.6H2.9L2.2,4.7H1.1C0.5,4.7,0,5.3,0,5.8v2.6
		h17.5V5.8C17.5,5.3,17,4.7,16.4,4.7z"/>
	<path fill-rule="evenodd" clip-rule="evenodd" fill="#F4B10B" d="M0,7.7v9.9c0,0.6,0.5,1.1,1.1,1.1h15.3c0.6,0,1.1-0.5,1.1-1.1V7.7
		H0z"/>
	<path fill-rule="evenodd" clip-rule="evenodd" fill="#FDD204" d="M2.5,7.7L0,17.5c0,0.6,0.5,1.1,1.1,1.1h15.3
		c0.6,0,1.1-0.5,1.1-1.1L20,7.7H2.5z"/>
</g>
</svg>
