<?xml version="1.0" encoding="utf-8"?>
<!-- Generator: Adobe Illustrator 22.0.1, SVG Export Plug-In . SVG Version: 6.00 Build 0)  -->
<svg version="1.1" xmlns="http://www.w3.org/2000/svg" xmlns:xlink="http://www.w3.org/1999/xlink" x="0px" y="0px"
	 viewBox="0 0 20 20" enable-background="new 0 0 20 20" xml:space="preserve">
<g id="Layer_4">
</g>
<g id="Layer_1">
	<g>
		<path d="M5.8,19H19V1H5.8v3h-1V1c0-0.5,0.5-1,1-1H19c0.5,0,1,0.5,1,1v18c0,0.5-0.5,1-1,1H5.8c-0.5,0-1-0.5-1-1v-3h1V19z"/>
		<path d="M0.4,9.8h13.4l-2.4-2.5c-0.2-0.2-0.2-0.4,0-0.6c0.2-0.2,0.4-0.2,0.6,0l3.1,3.1c0.1,0.1,0.1,0.3,0.1,0.3s0,0.2-0.1,0.3
			L12,13.7c-0.2,0.2-0.4,0.2-0.6,0c-0.2-0.2-0.1-0.5,0-0.6l2.4-2.4H0.4c-0.2,0-0.4-0.2-0.4-0.4C0,10,0.2,9.8,0.4,9.8z"/>
	</g>
</g>
<g id="Isolation_Mode">
</g>
<g id="Layer_3">
</g>
</svg>
