<?xml version="1.0" encoding="utf-8"?>
<!-- Generator: Adobe Illustrator 21.0.0, SVG Export Plug-In . SVG Version: 6.00 Build 0)  -->
<svg version="1.1" id="Layer_1" xmlns="http://www.w3.org/2000/svg" xmlns:xlink="http://www.w3.org/1999/xlink" x="0px" y="0px"
	 viewBox="0 0 20 20" enable-background="new 0 0 20 20" xml:space="preserve">
<g>
	<g>
		<path fill-rule="evenodd" clip-rule="evenodd" fill="#70BE44" d="M20,17c0,1.6-1.4,3-3,3H3c-1.6,0-3-1.4-3-3V3c0-1.6,1.4-3,3-3h14
			c1.6,0,3,1.4,3,3V17z"/>
	</g>
	<path fill-rule="evenodd" clip-rule="evenodd" fill="#FFFFFF" d="M10,15.5c-0.4,0-0.7-0.3-0.7-0.7v-4.1H5.2c-0.4,0-0.7-0.3-0.7-0.7
		s0.3-0.7,0.7-0.7h4.1V5.2c0-0.4,0.3-0.7,0.7-0.7c0.4,0,0.7,0.3,0.7,0.7v4.1h4.1c0.4,0,0.7,0.3,0.7,0.7s-0.3,0.7-0.7,0.7h-4.1v4.1
		C10.7,15.2,10.4,15.5,10,15.5z"/>
</g>
</svg>
