<?xml version="1.0" encoding="utf-8"?>
<!-- Generator: Adobe Illustrator 21.0.0, SVG Export Plug-In . SVG Version: 6.00 Build 0)  -->
<svg version="1.1" xmlns="http://www.w3.org/2000/svg" xmlns:xlink="http://www.w3.org/1999/xlink" x="0px" y="0px"
	 viewBox="0 0 20 20" enable-background="new 0 0 20 20" xml:space="preserve">
<g id="Layer_1">
	<g>
		<g>
			<path fill-rule="evenodd" clip-rule="evenodd" d="M13,7.7L19,1.6l0,3.7c0,0.1,0,0.2,0.1,0.3s0.2,0.1,0.3,0.1
				c0.3,0,0.5-0.2,0.5-0.5l0-4.9c0-0.1,0-0.2-0.1-0.3l0,0C19.8,0,19.6,0,19.5,0l-4.9,0c-0.1,0-0.2,0.1-0.3,0.1
				c-0.1,0.1-0.1,0.2-0.1,0.3c0,0.1,0,0.2,0.1,0.3S14.5,1,14.6,1h3.7L12.3,7c-0.2,0.2-0.2,0.5,0,0.7C12.5,7.9,12.8,7.9,13,7.7z
				 M19,18.5c0,0.3-0.2,0.5-0.5,0.5h-17C1.2,19,1,18.8,1,18.5v-17C1,1.2,1.2,1,1.5,1h10.2V0H1.5C0.7,0,0,0.7,0,1.5v17
				C0,19.3,0.7,20,1.5,20h17c0.8,0,1.5-0.7,1.5-1.5V7.8h-1V18.5z"/>
		</g>
	</g>
	<g>
		<g>
		</g>
	</g>
</g>
<g id="Isolation_Mode">
</g>
</svg>
