<?xml version="1.0" encoding="utf-8"?>
<!-- Generator: Adobe Illustrator 21.0.0, SVG Export Plug-In . SVG Version: 6.00 Build 0)  -->
<svg version="1.1" xmlns="http://www.w3.org/2000/svg" xmlns:xlink="http://www.w3.org/1999/xlink" x="0px" y="0px"
	 viewBox="0 0 20 20" enable-background="new 0 0 20 20" xml:space="preserve">
<g id="Layer_1">
	<path fill-rule="evenodd" clip-rule="evenodd" d="M1.6,20V2.4h4V1.6h1.6V1.3C7.2,0.6,7.7,0,8.4,0h3.2c0.7,0,1.2,0.6,1.2,1.3v0.3
		h1.6v0.8h4V20H1.6z M13.6,2.4H12V1.5c0-0.4-0.3-0.7-0.6-0.7H8.6C8.3,0.8,8,1.1,8,1.5v0.9H6.4v2.4h7.2V2.4z M17.6,3.2h-3.2v2.4H5.6
		V3.2H2.4v16h15.2V3.2z M15.2,9.6H4.8V8.8h10.4V9.6z M15.2,12H4.8v-0.8h10.4V12z M11.2,14.4H4.8v-0.8h6.4V14.4z"/>
	<g>
		<g>
		</g>
	</g>
</g>
<g id="Isolation_Mode">
</g>
</svg>
