<?xml version="1.0" encoding="utf-8"?>
<!-- Generator: Adobe Illustrator 22.0.1, SVG Export Plug-In . SVG Version: 6.00 Build 0)  -->
<svg version="1.1" xmlns="http://www.w3.org/2000/svg" xmlns:xlink="http://www.w3.org/1999/xlink" x="0px" y="0px"
	 viewBox="0 0 20 20" enable-background="new 0 0 20 20" xml:space="preserve">
<g id="Layer_4">
</g>
<g id="Layer_1">
	<path d="M14,13.2l6,6c0.2,0.2,0.2,0.5,0,0.8c-0.2,0.2-0.5,0.2-0.7,0l-6-6 M16,8C16,12.4,12.4,16,8,16S0.1,12.4,0.1,8S3.6,0.1,8,0.1
		S16,3.6,16,8z M8,1.2c-3.8,0-6.8,3.1-6.8,6.8s3.1,6.8,6.8,6.8c3.8,0,6.8-3.1,6.8-6.8C14.8,4.3,11.8,1.2,8,1.2C8,1.2,8,1.2,8,1.2z"
		/>
</g>
<g id="Isolation_Mode">
</g>
<g id="Layer_3">
</g>
</svg>
