<?xml version="1.0" encoding="utf-8"?>
<!-- Generator: Adobe Illustrator 22.0.1, SVG Export Plug-In . SVG Version: 6.00 Build 0)  -->
<svg version="1.1" xmlns="http://www.w3.org/2000/svg" xmlns:xlink="http://www.w3.org/1999/xlink" x="0px" y="0px"
	 viewBox="0 0 12 12" enable-background="new 0 0 12 12" xml:space="preserve">
<g id="Layer_4">
</g>
<g id="Layer_1">
	<path d="M6,0C2.7,0,0,2.7,0,6s2.7,6,6,6s6-2.7,6-6S9.3,0,6,0z M8.8,8.1C9,8.3,9,8.6,8.8,8.8C8.6,9,8.3,9,8.1,8.8L6,6.7L3.9,8.8
		C3.7,9,3.4,9,3.2,8.8C3,8.6,3,8.3,3.2,8.1L5.3,6L3.2,3.9C3,3.7,3,3.4,3.2,3.2C3.4,3,3.7,3,3.9,3.2L6,5.3l2.1-2.1
		C8.3,3,8.6,3,8.8,3.2C9,3.4,9,3.7,8.8,3.9L6.7,6L8.8,8.1z" fill="grey"/>
</g>
<g id="Isolation_Mode">
</g>
<g id="Layer_3">
</g>
</svg>
