<?xml version="1.0" encoding="utf-8"?>
<!-- Generator: Adobe Illustrator 22.0.1, SVG Export Plug-In . SVG Version: 6.00 Build 0)  -->
<svg version="1.1" xmlns="http://www.w3.org/2000/svg" xmlns:xlink="http://www.w3.org/1999/xlink" x="0px" y="0px"
	 viewBox="0 0 12 12" enable-background="new 0 0 12 12" xml:space="preserve">
<g id="Layer_4">
</g>
<g id="Layer_1">
	<path fill-rule="evenodd" clip-rule="evenodd" d="M6.5,0.6l1.5,2.9C8,3.7,8.1,3.8,8.3,3.8l3.3,0.5c0.4,0.1,0.6,0.6,0.3,0.9L9.5,7.4
		C9.4,7.6,9.3,7.7,9.3,7.9l0.6,3.2c0.1,0.4-0.4,0.7-0.7,0.5l-2.9-1.5c-0.2-0.1-0.3-0.1-0.5,0l-2.9,1.5c-0.4,0.2-0.8-0.1-0.7-0.5
		l0.6-3.2c0-0.2,0-0.3-0.1-0.5L0.2,5.1C-0.1,4.8,0,4.3,0.4,4.3l3.3-0.5c0.2,0,0.3-0.1,0.4-0.3l1.5-2.9C5.7,0.2,6.3,0.2,6.5,0.6z"/>
</g>
<g id="Isolation_Mode">
</g>
<g id="Layer_3">
</g>
</svg>
