<?xml version="1.0" encoding="utf-8"?>
<!-- Generator: Adobe Illustrator 22.0.1, SVG Export Plug-In . SVG Version: 6.00 Build 0)  -->
<svg version="1.1" xmlns="http://www.w3.org/2000/svg" xmlns:xlink="http://www.w3.org/1999/xlink" x="0px" y="0px"
	 viewBox="0 0 20 20" enable-background="new 0 0 20 20" xml:space="preserve">
<g id="Layer_4">
</g>
<g id="Layer_1">
	<path fill-rule="evenodd" clip-rule="evenodd" d="M19.8,11.3c0,0-3.8-8.2-3.8-8.2c-0.2-0.4-0.4-0.4-1-0.4h-2.3v0
		c-0.3,0-0.5,0.3-0.5,0.5c0,0.3,0.3,0.5,0.6,0.5l2.3,0c0.1,0,0.2,0.1,0.3,0.2l3,6.4c0,0.1,0,0.2-0.1,0.2H1.7c-0.1,0-0.2-0.1-0.1-0.2
		l3-6.4c0.1-0.1,0.2-0.2,0.3-0.2l2.3,0c0.3,0,0.5-0.3,0.5-0.5S7.4,2.8,7.2,2.7l-2.3,0c-0.7,0-0.8-0.1-1,0.4c0,0-3.8,8.2-3.8,8.2
		c0,0.1-0.1,0.2-0.1,0.4V12c0,2.5,2,4.5,4.5,4.5c1.7,0,3.2-1,3.9-2.4h3.2c0.8,1.4,2.2,2.4,3.9,2.4h0c2.5,0,4.5-2,4.5-4.5v-0.3
		C19.9,11.5,19.9,11.4,19.8,11.3z M4.4,15.4C2.5,15.4,1,13.8,1,12v-0.3h6.8V12C7.8,13.8,6.3,15.4,4.4,15.4z M8.8,13
		c0.1-0.3,0.1-0.7,0.1-1v-0.3h2.1V12c0,0.4,0.1,0.7,0.1,1H8.8z M15.4,15.4c-1.9,0-3.4-1.5-3.4-3.4v-0.3h6.8V12
		C18.8,13.8,17.3,15.4,15.4,15.4z"/>
</g>
<g id="Isolation_Mode">
</g>
<g id="Layer_3">
</g>
</svg>
